<?xml version="1.0" encoding="UTF-8" standalone="no"?>
<svg
   xmlns:dc="http://purl.org/dc/elements/1.1/"
   xmlns:cc="http://creativecommons.org/ns#"
   xmlns:rdf="http://www.w3.org/1999/02/22-rdf-syntax-ns#"
   xmlns:svg="http://www.w3.org/2000/svg"
   xmlns="http://www.w3.org/2000/svg"
   xmlns:sodipodi="http://sodipodi.sourceforge.net/DTD/sodipodi-0.dtd"
   xmlns:inkscape="http://www.inkscape.org/namespaces/inkscape"
   version="1.0"
   width="169.46277mm"
   height="194.4409mm"
   id="svg903"
   sodipodi:docname="caesar_spreadsheet_summary.svg"
   inkscape:version="0.92.2 (5c3e80d, 2017-08-06)">
  <metadata
     id="metadata907">
    <rdf:RDF>
      <cc:Work
         rdf:about="">
        <dc:format>image/svg+xml</dc:format>
        <dc:type
           rdf:resource="http://purl.org/dc/dcmitype/StillImage" />
        <dc:title></dc:title>
      </cc:Work>
    </rdf:RDF>
  </metadata>
  <sodipodi:namedview
     pagecolor="#ffffff"
     bordercolor="#666666"
     borderopacity="1"
     objecttolerance="10"
     gridtolerance="10"
     guidetolerance="10"
     inkscape:pageopacity="0"
     inkscape:pageshadow="2"
     inkscape:window-width="1920"
     inkscape:window-height="1137"
     id="namedview905"
     showgrid="false"
     inkscape:zoom="1.1200694"
     inkscape:cx="492.38707"
     inkscape:cy="350.58728"
     inkscape:window-x="1200"
     inkscape:window-y="0"
     inkscape:window-maximized="1"
     inkscape:current-layer="svg903" />
  <defs
     id="defs819">
    <clipPath
       clipPathUnits="userSpaceOnUse"
       id="clipEmfPath1">
      <path
         d="M 0,0 H 1122.0254 V 793.34026 H 0 Z"
         id="path815"
         inkscape:connector-curvature="0" />
    </clipPath>
    <pattern
       id="EMFhbasepattern"
       patternUnits="userSpaceOnUse"
       width="6"
       height="6"
       x="0"
       y="0" />
  </defs>
  <path
     style="fill:#b0b0de;fill-opacity:1;fill-rule:evenodd;stroke:none"
     clip-path="url(#clipEmfPath1)"
     d="M 313.95102,70.988444 H 137.74554 V 12.542929 h 352.41097 v 58.445515 z"
     id="path821"
     inkscape:connector-curvature="0"
     transform="translate(-68.87277,-12.542929)" />
  <g
     clip-path="url(#clipEmfPath1)"
     id="g829"
     transform="translate(-68.87277,-12.542929)">
    <text
       xml:space="preserve"
       style="font-style:normal;font-variant:normal;font-weight:400;font-size:26.5px;line-height:125%;font-family:Ubuntu;text-align:start;letter-spacing:0px;word-spacing:0px;text-anchor:start;fill:#000000;fill-opacity:1;stroke:none"
       transform="translate(147.87055,51.645132)"
       x="0"
       y="0"
       id="text827"><tspan
         sodipodi:role="line"
         x="0"
         y="0"
         id="tspan825"><tspan
           dx="0"
           dy="0"
           style="font-style:normal;font-variant:normal;font-weight:400;font-size:26.5px;font-family:Ubuntu;fill:#000000"
           id="tspan823">Original</tspan></tspan></text>
  </g>
  <path
     style="fill:#b0b0de;fill-opacity:1;fill-rule:evenodd;stroke:none"
     clip-path="url(#clipEmfPath1)"
     d="M 313.95102,141.97689 H 137.74554 V 83.531373 h 352.41097 v 58.445517 z"
     id="path831"
     inkscape:connector-curvature="0"
     transform="translate(-68.87277,-12.542929)" />
  <g
     clip-path="url(#clipEmfPath1)"
     id="g839"
     transform="translate(-68.87277,-12.542929)">
    <text
       xml:space="preserve"
       style="font-style:normal;font-variant:normal;font-weight:400;font-size:26.5px;line-height:125%;font-family:Ubuntu;text-align:start;letter-spacing:0px;word-spacing:0px;text-anchor:start;fill:#000000;fill-opacity:1;stroke:none"
       transform="translate(147.87055,122.63358)"
       x="0"
       y="0"
       id="text837"><tspan
         sodipodi:role="line"
         x="0"
         y="0"
         id="tspan835"><tspan
           dx="0"
           dy="0"
           style="font-style:normal;font-variant:normal;font-weight:400;font-size:26.5px;font-family:Ubuntu;fill:#000000"
           id="tspan833">Key</tspan></tspan></text>
  </g>
  <path
     style="fill:#b0b0de;fill-opacity:1;fill-rule:evenodd;stroke:none"
     clip-path="url(#clipEmfPath1)"
     d="M 313.95102,212.96533 H 137.74554 v -58.44551 h 352.41097 v 58.44551 z"
     id="path841"
     inkscape:connector-curvature="0"
     transform="translate(-68.87277,-12.542929)" />
  <g
     clip-path="url(#clipEmfPath1)"
     id="g849"
     transform="translate(-68.87277,-12.542929)">
    <text
       xml:space="preserve"
       style="font-style:normal;font-variant:normal;font-weight:400;font-size:26.5px;line-height:125%;font-family:Ubuntu;text-align:start;letter-spacing:0px;word-spacing:0px;text-anchor:start;fill:#000000;fill-opacity:1;stroke:none"
       transform="translate(147.87055,193.62202)"
       x="0"
       y="0"
       id="text847"><tspan
         sodipodi:role="line"
         x="0"
         y="0"
         id="tspan845"><tspan
           dx="0"
           dy="0"
           style="font-style:normal;font-variant:normal;font-weight:400;font-size:26.5px;font-family:Ubuntu;fill:#000000"
           id="tspan843">Plain and cipher text</tspan></tspan></text>
  </g>
  <path
     style="fill:#b0b0de;fill-opacity:1;fill-rule:evenodd;stroke:none"
     clip-path="url(#clipEmfPath1)"
     d="M 125.58041,501.0749 V 676.48701 H 68.87277 V 325.70057 h 56.70764 z"
     id="path851"
     inkscape:connector-curvature="0"
     transform="translate(-68.87277,-12.542929)" />
  <g
     clip-path="url(#clipEmfPath1)"
     id="g859"
     transform="translate(-68.87277,-12.542929)">
    <text
       xml:space="preserve"
       style="font-style:normal;font-variant:normal;font-weight:400;font-size:26.5px;line-height:125%;font-family:Ubuntu;text-align:start;letter-spacing:0px;word-spacing:0px;text-anchor:start;fill:#000000;fill-opacity:1;stroke:none"
       transform="rotate(-90,386.43177,279.5902)"
       x="0"
       y="0"
       id="text857"><tspan
         sodipodi:role="line"
         x="0"
         y="0"
         id="tspan855"><tspan
           dx="0"
           dy="0"
           style="font-style:normal;font-variant:normal;font-weight:400;font-size:26.5px;font-family:Ubuntu;fill:#000000"
           id="tspan853">Shift</tspan></tspan></text>
  </g>
  <path
     style="fill:#b0b0de;fill-opacity:1;fill-rule:evenodd;stroke:none"
     clip-path="url(#clipEmfPath1)"
     d="M 374.70111,313.19543 H 137.74554 v -58.4833 h 473.91115 v 58.4833 z"
     id="path861"
     inkscape:connector-curvature="0"
     transform="translate(-68.87277,-12.542929)" />
  <g
     clip-path="url(#clipEmfPath1)"
     id="g869"
     transform="translate(-68.87277,-12.542929)">
    <text
       xml:space="preserve"
       style="font-style:normal;font-variant:normal;font-weight:400;font-size:26.5px;line-height:125%;font-family:Ubuntu;text-align:start;letter-spacing:0px;word-spacing:0px;text-anchor:start;fill:#000000;fill-opacity:1;stroke:none"
       transform="translate(147.87055,293.85211)"
       x="0"
       y="0"
       id="text867"><tspan
         sodipodi:role="line"
         x="0"
         y="0"
         id="tspan865"><tspan
           dx="0"
           dy="0"
           style="font-style:normal;font-variant:normal;font-weight:400;font-size:26.5px;font-family:Ubuntu;fill:#000000"
           id="tspan863">Alphabet</tspan></tspan></text>
  </g>
  <path
     style="fill:#b0b0de;fill-opacity:1;fill-rule:evenodd;stroke:none"
     clip-path="url(#clipEmfPath1)"
     d="M 373.7944,676.48701 H 137.74554 V 325.70057 h 472.13549 v 350.78644 z"
     id="path871"
     inkscape:connector-curvature="0"
     transform="translate(-68.87277,-12.542929)" />
  <g
     clip-path="url(#clipEmfPath1)"
     id="g879"
     transform="translate(-68.87277,-12.542929)">
    <text
       xml:space="preserve"
       style="font-style:normal;font-variant:normal;font-weight:400;font-size:26.5px;line-height:125%;font-family:Ubuntu;text-align:start;letter-spacing:0px;word-spacing:0px;text-anchor:start;fill:#000000;fill-opacity:1;stroke:none"
       transform="translate(147.87055,510.97324)"
       x="0"
       y="0"
       id="text877"><tspan
         sodipodi:role="line"
         x="0"
         y="0"
         id="tspan875"><tspan
           dx="0"
           dy="0"
           style="font-style:normal;font-variant:normal;font-weight:400;font-size:26.5px;font-family:Ubuntu;fill:#000000"
           id="tspan873">Shifted plaintext</tspan></tspan></text>
  </g>
  <path
     style="fill:#b0b0de;fill-opacity:1;fill-rule:evenodd;stroke:none"
     clip-path="url(#clipEmfPath1)"
     d="M 374.70111,747.43767 H 137.74554 v -58.44551 h 473.91115 v 58.44551 z"
     id="path881"
     inkscape:connector-curvature="0"
     transform="translate(-68.87277,-12.542929)" />
  <g
     clip-path="url(#clipEmfPath1)"
     id="g895"
     transform="translate(-68.87277,-12.542929)">
    <text
       xml:space="preserve"
       style="font-style:normal;font-variant:normal;font-weight:400;font-size:26.5px;line-height:125%;font-family:Ubuntu;text-align:start;letter-spacing:0px;word-spacing:0px;text-anchor:start;fill:#000000;fill-opacity:1;stroke:none"
       transform="translate(147.87055,728.13214)"
       x="0"
       y="0"
       id="text887"><tspan
         sodipodi:role="line"
         x="0"
         y="0"
         id="tspan885"><tspan
           dx="0"
           dy="0"
           style="font-style:normal;font-variant:normal;font-weight:400;font-size:26.5px;font-family:Ubuntu;fill:#000000"
           id="tspan883">Encipher and decipher</tspan></tspan></text>
    <text
       xml:space="preserve"
       style="font-style:normal;font-variant:normal;font-weight:400;font-size:26.5px;line-height:125%;font-family:Ubuntu;text-align:start;letter-spacing:0px;word-spacing:0px;text-anchor:start;fill:#000000;fill-opacity:1;stroke:none"
       transform="translate(147.87055,728.13214)"
       x="433.4111"
       y="-605.49854"
       id="text893"><tspan
         sodipodi:role="line"
         x="433.4111"
         y="-605.49854"
         id="tspan891"><tspan
           dx="0"
           dy="0"
           style="font-style:normal;font-variant:normal;font-weight:400;font-size:26.5px;font-family:Ubuntu;fill:#000000"
           id="tspan889">Dashboard</tspan></tspan></text>
  </g>
  <path
     style="fill:#000000;fill-opacity:1;fill-rule:evenodd;stroke:none"
     clip-path="url(#clipEmfPath1)"
     d="m 488.79643,43.333553 c -0.30224,-0.22668 -0.49114,-0.528919 -0.60448,-0.868938 -0.11334,-0.377799 -0.15112,-0.717818 -0.0756,-1.095617 0.0756,-0.377799 0.22668,-0.680039 0.49114,-0.944498 0.22668,-0.302239 0.52892,-0.491139 0.86894,-0.604479 0.3778,-0.113339 0.71782,-0.151119 1.09562,-0.07556 0.3778,0.07556 0.68003,0.226679 0.94449,0.491138 l 81.00012,70.950661 c 0.30224,0.22668 0.49114,0.52892 0.60448,0.86894 0.11334,0.3778 0.15112,0.71782 0.0756,1.09562 -0.0756,0.3778 -0.22668,0.68004 -0.49114,0.9445 -0.22668,0.30224 -0.52892,0.49114 -0.86893,0.60448 -0.3778,0.11334 -0.71782,0.15112 -1.09562,0.0756 -0.3778,-0.0756 -0.68004,-0.22668 -0.9445,-0.49114 z"
     id="path897"
     inkscape:connector-curvature="0"
     transform="translate(-68.87277,-12.542929)" />
  <path
     style="fill:#000000;fill-opacity:1;fill-rule:evenodd;stroke:none"
     clip-path="url(#clipEmfPath1)"
     d="m 490.15651,114.81314 c -0.3778,0 -0.71782,-0.0756 -1.02006,-0.26446 -0.34002,-0.1889 -0.60448,-0.45336 -0.79338,-0.7556 -0.1889,-0.34002 -0.26446,-0.68004 -0.26446,-1.05784 0,-0.3778 0.0756,-0.71782 0.26446,-1.02006 0.1889,-0.34002 0.45336,-0.60447 0.79338,-0.79337 0.30224,-0.1889 0.64226,-0.26446 1.02006,-0.26446 h 81.00012 c 0.3778,0 0.71782,0.0756 1.05783,0.26446 0.30224,0.1889 0.5667,0.45335 0.7556,0.79337 0.1889,0.30224 0.26446,0.64226 0.26446,1.02006 0,0.3778 -0.0756,0.71782 -0.26446,1.05784 -0.1889,0.30224 -0.45336,0.5667 -0.7556,0.7556 -0.34001,0.1889 -0.68003,0.26446 -1.05783,0.26446 z"
     id="path899"
     inkscape:connector-curvature="0"
     transform="translate(-68.87277,-12.542929)" />
  <path
     style="fill:#000000;fill-opacity:1;fill-rule:evenodd;stroke:none"
     clip-path="url(#clipEmfPath1)"
     d="m 491.51658,185.27266 c -0.26446,0.26446 -0.56669,0.41558 -0.94449,0.49114 -0.3778,0.0756 -0.71782,0.0378 -1.09562,-0.0756 -0.34002,-0.11334 -0.64226,-0.30224 -0.86894,-0.60448 -0.26446,-0.26446 -0.41558,-0.5667 -0.49114,-0.9445 -0.0756,-0.37779 -0.0378,-0.71781 0.0756,-1.09561 0.11334,-0.34002 0.30224,-0.64226 0.60448,-0.86894 l 81.00012,-70.98845 c 0.26446,-0.26445 0.5667,-0.41557 0.9445,-0.49113 0.3778,-0.0756 0.71782,-0.0378 1.09562,0.0756 0.34001,0.11334 0.64225,0.30224 0.86893,0.60447 0.26446,0.26446 0.41558,0.5667 0.49114,0.9445 0.0756,0.3778 0.0378,0.71782 -0.0756,1.09562 -0.11334,0.34002 -0.30224,0.64226 -0.60448,0.86894 z"
     id="path901"
     inkscape:connector-curvature="0"
     transform="translate(-68.87277,-12.542929)" />
</svg>
